#!OML:ASF E:\Steps\Project 1\Capture day 1\Session 2\Subject.ASF
:FULLY-SPECIFIED
:DEGREES
305
root 10.9722 16.0203 11.6375 -137.912 0.711807 159.571
lowerback -2.99013 -4.11786 2.99191
upperback 4.30103 -5.85797 -0.0338604
thorax 5.84265 -2.82796 -2.16163
lowerneck -6.63271 -4.65693 1.26128
upperneck 8.64696 -6.0417 -2.20248
head 3.88931 -2.99972 -1.2739
rclavicle -1.59028e-014 0
rhumerus -11.3141 14.2658 -56.5081
rradius 61.2325
rwrist -16.238
rhand -4.53023 -56.0112
rfingers 7.12502
rthumb 21.2447 -444.867
lclavicle -1.59028e-014 0
lhumerus -12.8481 -32.8538 46.2847
lradius 53.8366
lwrist 3.31911
lhand -21.3688 -14.7371
lfingers 7.12502
lthumb 5.0183 15.1835
rfemur -75.8909 -18.4279 3.40201
rtibia 52.1239
rfoot -28.4725 -8.0939
rtoes -13.9661
lfemur -35.5939 -6.61011 -3.93354
ltibia 51.3233
lfoot -9.65328 23.24
ltoes 10.5599
306
root 11.0043 16.0583 11.6109 -138.134 0.722005 159.928
lowerback -3.01809 -3.99527 3.05854
upperback 4.33962 -5.69786 -0.0876898
thorax 5.89634 -2.74338 -2.24721
lowerneck -7.22998 -4.52314 1.66725
upperneck 9.18166 -5.86735 -2.551
head 4.17986 -2.91257 -1.48781
rclavicle -9.54166e-015 1.74931e-014
rhumerus -11.5429 14.2271 -57.0561
rradius 61.2239
rwrist -16.0945
rhand -4.45444 -55.7299
rfingers 7.12502
rthumb 21.3175 -444.577
lclavicle -9.54166e-015 1.74931e-014
lhumerus -13.0076 -33.0044 46.6912
lradius 53.6597
lwrist 3.27092
lhand -21.4076 -14.2732
lfingers 7.12502
lthumb 4.98081 15.6483
rfemur -75.2415 -17.7767 3.62129
rtibia 51.6042
rfoot -28.4778 -7.9515
rtoes -13.5496
lfemur -36.6363 -6.60873 -4.35627
ltibia 53.0543
lfoot -8.50106 22.7992
ltoes -0.845054
307
root 11.0361 16.0966 11.5855 -138.304 0.643153 160.314
lowerback -3.21547 -3.91731 3.18004
upperback 4.32987 -5.60136 -0.114363
thorax 5.9908 -2.68495 -2.35068
lowerneck -6.71018 -4.11844 1.96729
upperneck 8.87296 -5.28693 -3.16576
head 3.95653 -2.64083 -1.68857
rclavicle 2.8625e-014 9.46215e-014
rhumerus -11.8468 14.32 -57.6462
rradius 61.2642
rwrist -15.9417
rhand -4.17737 -55.7856
rfingers 7.12502
rthumb 21.5836 -444.603
lclavicle 2.8625e-014 9.46215e-014
lhumerus -13.3582 -33.0618 47.1835
lradius 53.5035
lwrist 3.29331
lhand -21.1982 -13.9928
lfingers 7.12502
lthumb 5.18294 15.9238
rfemur -74.6114 -17.2238 3.98298
rtibia 50.9971
rfoot -28.3737 -7.87345
rtoes -13.5927
lfemur -37.7019 -6.73416 -4.66672
ltibia 54.5439
lfoot -7.98338 22.1425
ltoes -9.15208
308
root 11.0706 16.1363 11.5603 -138.425 0.716418 160.712
lowerback -3.45569 -3.81948 3.1247
upperback 4.27261 -5.46431 -0.135167
thorax 6.07847 -2.61374 -2.34847
lowerneck -6.95468 -4.05709 2.2319
upperneck 9.312 -5.21464 -3.25376
head 4.15539 -2.59659 -1.78234
rclavicle -2.06736e-014 -3.57812e-014
rhumerus -12.1147 14.4603 -58.2367
rradius 61.284
rwrist -15.8461
rhand -3.78863 -55.9225
rfingers 7.12502
rthumb 21.9569 -444.696
lclavicle -2.06736e-014 -3.57812e-014
lhumerus -13.7955 -32.9574 47.7813
lradius 53.2695
lwrist 3.28801
lhand -20.7599 -14.1765
lfingers 7.12502
lthumb 5.60615 15.7293
rfemur -74.1144 -16.611 4.35703
rtibia 50.4279
rfoot -28.3584 -7.77894
rtoes -14.0337
lfemur -38.742 -6.81886 -5.0564
ltibia 55.9247
lfoot -8.43215 21.4627
ltoes -11.9833
309
root 11.1042 16.1781 11.5341 -138.614 0.909501 161.042
lowerback -3.60309 -3.76456 2.87406
upperback 4.19021 -5.37143 -0.0963312
thorax 6.10627 -2.57681 -2.171
lowerneck -6.99334 -4.15095 2.01707
upperneck 9.71483 -5.31703 -3.07273
head 4.31505 -2.63949 -1.70142
rclavicle 1.03368e-013 5.00937e-014
rhumerus -12.3256 14.9238 -58.6718
rradius 61.3348
rwrist -15.796
rhand -3.51863 -55.9409
rfingers 7.12502
rthumb 22.2161 -444.684
lclavicle 1.03368e-013 5.00937e-014
lhumerus -14.474 -32.7688 48.6274
lradius 53.0359
lwrist 3.27188
lhand -20.5549 -13.9505
lfingers 7.12502
lthumb 5.8041 15.95
rfemur -73.5543 -15.9039 4.52261
rtibia 49.9099
rfoot -28.4429 -7.65755
rtoes -14.0353
lfemur -39.7157 -6.94881 -5.62718
ltibia 57.233
lfoot -9.20985 20.738
ltoes -9.40234
310
root 11.1332 16.2191 11.5067 -138.905 1.00178 161.392
lowerback -3.75472 -3.76406 2.74837
upperback 4.14485 -5.36587 -0.00789236
thorax 6.16493 -2.57843 -2.01982
lowerneck -6.96964 -4.18042 1.54505
upperneck 10.1939 -5.30535 -2.80485
head 4.50443 -2.62851 -1.53924
rclavicle 3.18055e-014 3.81667e-014
rhumerus -12.5438 15.5689 -59.0301
rradius 61.4992
rwrist -15.709
rhand -3.42434 -56.0457
rfingers 7.12502
rthumb 22.3067 -444.778
lclavicle 3.18055e-014 3.81667e-014
lhumerus -15.3178 -32.5618 49.5767
lradius 52.7645
lwrist 3.1288
lhand -20.9396 -13.7335
lfingers 7.12502
lthumb 5.43266 16.1769
rfemur -72.8241 -15.2567 4.72955
rtibia 49.3298
rfoot -28.4788 -7.47747
rtoes -13.2569
lfemur -40.6017 -7.23281 -6.13185
ltibia 58.386
lfoot -10.5428 19.837
ltoes -2.31099
311
root 11.1622 16.2585 11.4781 -139.155 0.965754 161.819
lowerback -3.97392 -3.73087 2.82777
upperback 4.13804 -5.33156 0.0220717
thorax 6.28134 -2.55377 -2.04677
lowerneck -6.80173 -4.07365 1.41858
upperneck 10.2311 -5.16502 -2.61261
head 4.4961 -2.55294 -1.43937
rclavicle 6.20208e-014 1.59028e-014
rhumerus -12.6936 16.0119 -59.5311
rradius 61.4885
rwrist -15.6053
rhand -3.78041 -55.387
rfingers 7.12502
rthumb 21.9648 -444.16
lclavicle 6.20208e-014 1.59028e-014
lhumerus -15.9423 -32.3722 50.2885
lradius 52.4334
lwrist 3.03337
lhand -21.0977 -14.0226
lfingers 7.12502
lthumb 5.28005 15.8916
rfemur -72.0648 -14.7304 5.1535
rtibia 48.5822
rfoot -28.3125 -7.24415
rtoes -12.7974
lfemur -41.5763 -7.62446 -6.4587
ltibia 59.5061
lfoot -10.9306 18.9124
ltoes -4.15692
312
root 11.1932 16.3003 11.4489 -139.481 0.945997 162.227
lowerback -4.06034 -3.61798 2.88665
upperback 4.17351 -5.18458 -0.0465514
thorax 6.36467 -2.47455 -2.14641
lowerneck -6.66364 -4.02834 1.46947
upperneck 10.1573 -5.13686 -2.40983
head 4.44588 -2.52856 -1.37196
rclavicle 7.95139e-015 -9.54166e-014
rhumerus -12.791 16.1483 -60.1743
rradius 61.1611
rwrist -15.4941
rhand -3.9541 -54.9024
rfingers 7.12502
rthumb 21.798 -443.695
lclavicle 7.95139e-015 -9.54166e-014
lhumerus -16.3243 -32.3291 50.8568
lradius 52.2025
lwrist 3.20772
lhand -20.8254 -13.8172
lfingers 7.12502
lthumb 5.54297 16.0903
rfemur -71.1587 -14.1933 5.5373
rtibia 47.7105
rfoot -27.9754 -6.98184
rtoes -13.0267
lfemur -42.4571 -8.11018 -6.82517
ltibia 60.4957
lfoot -10.0928 18.1625
ltoes -15.7671
313
root 11.2205 16.3423 11.417 -139.949 1.0032 162.569
lowerback -4.06641 -3.54468 2.82188
upperback 4.24148 -5.08487 -0.104684
thorax 6.44564 -2.42628 -2.16642
lowerneck -7.18906 -3.77724 1.98511
upperneck 11.1239 -4.77008 -3.0085
head 4.38236 -2.36526 -1.51545
rclavicle -2.22639e-014 3.65764e-014
rhumerus -12.8829 16.3568 -60.7642
rradius 60.949
rwrist -15.4184
rhand -3.5616 -55.7148
rfingers 7.12502
rthumb 22.1749 -444.463
lclavicle -2.22639e-014 3.65764e-014
lhumerus -16.8566 -32.2958 51.405
lradius 52.1711
lwrist 3.57032
lhand -20.6573 -13.089
lfingers 7.12502
lthumb 5.70527 16.8142
rfemur -70.1049 -13.5647 5.71955
rtibia 46.9403
rfoot -27.7914 -6.8003
rtoes -13.0714
lfemur -43.0222 -8.69383 -7.36358
ltibia 61.1471
lfoot -9.75039 17.5482
ltoes -20.4792
